<?xml version="1.0" encoding="utf-8"?>
<!-- Generator: Adobe Illustrator 24.3.0, SVG Export Plug-In . SVG Version: 6.00 Build 0)  -->
<svg version="1.1" id="Layer_1" xmlns="http://www.w3.org/2000/svg" xmlns:xlink="http://www.w3.org/1999/xlink" x="0px" y="0px"
	 viewBox="0 0 500 500" style="enable-background:new 0 0 500 500;" xml:space="preserve">
<path d="M482.8,279.9c-0.7-2.1-4.1-4.2-6.6-4.4c-2.2-0.2-5.1,1.6-7,3.2c-6.6,5.8-12.9,11.9-19.3,17.9l-0.9-0.4
	c0.1-1.2,0.2-2.4,0.4-3.5c4.9-25.5,5.3-51.1,0-76.6C436.5,153.4,402,106.4,345.9,75.7c-38.4-21-79.7-27.9-123-22.1
	c-10,1.3-19.9,4.1-29.8,6.4c-3.6,0.8-6.4,2.9-7,6.9c-0.8,6,4.4,10.2,10.6,8.4c25-7.2,50.4-9.7,76.2-6.4c47.6,6,87.3,27.1,118.8,63.1
	c24,27.5,38.4,59.5,43.6,95.6c3.1,22,2.4,44.4-2.3,66.1c-1.1-2.5-1.8-4.1-2.4-5.8c-2.7-7.2-5.3-14.5-8.2-21.7
	c-1.8-4.4-6.1-6.2-10-4.7c-4.2,1.6-6.2,5.9-4.6,10.4c1.4,4,2.9,8,4.4,12c5,13.2,9.8,26.5,14.9,39.6c2.4,6.2,8.1,8.1,12.7,4
	c14.1-12.8,28-25.8,41.6-39.1C483.1,286.8,483.6,282.4,482.8,279.9z"/>
<path d="M307.6,433c-2.1-0.2-4.5,0.7-6.6,1.3c-22.7,6.5-46.5,8.6-70,6c-47-5.2-87.2-24.9-118.8-60.2C70,333,56.1,277.8,67.4,214.6
	c1,2.2,1.6,3.2,2,4.3c2.8,7.4,5.5,14.8,8.4,22.1c2.1,5.3,6.2,7.7,10.5,6.1c4.6-1.7,6.4-6.2,4.3-11.7c-6.1-16.5-12.3-33-18.5-49.4
	c-3-7.9-8.6-9.2-14.8-3.5c-12.8,11.9-25.6,23.8-38.4,35.8c-4.7,4.4-5.4,8.9-1.9,12.6s8.1,3.3,12.8-1.2c5.4-5.1,10.9-10.2,16.3-15.3
	c1-0.9,2-1.7,3.6-2.9c0,1.2,0,2.5-0.2,3.7c-5.5,27.4-5.4,54.7,1,81.9c15.1,64.8,52.7,111.9,112.6,140.7
	c38.1,18.3,78.4,23.2,120,16.1c8.2-1.4,16.2-3.7,24.3-6c4-1.1,5.8-4.3,5.3-8.5S311.4,433.3,307.6,433z"/>
<path d="M350.7,340.3c15.7-18.3,33.9-49.4,31.3-93.9c-4-69.9-61.9-124.4-131.9-124.2c-2.9,0-5.9,0.1-8.8,0.3
	c-72.4,4.5-127.5,66.6-123.4,139c3,56.5,39,96.9,79,114.3c0,0,0-0.1,0.1-0.3c45.1,19.7,97.4,12.8,135.7-18l0.1,0.1
	C339.3,352.4,345.3,346.6,350.7,340.3z M279.2,167.5c0-3.2,0-6.4,0-9.6c-0.1-1.9,0.7-3.8,2.1-5.1c3.3-3.1,5.7-5.6,7.9-8l0.1-0.1
	l0.2,0.1c28.9,10.9,50.6,30.2,64.6,57.4c1.4,2.7,2.5,5.5,3.7,8.4c0.6,1.5,1.2,3.1,2,4.7c-6.2,6.1-12.7,12.6-21.1,21
	c-1.2,1.3-2.9,2-4.7,1.9l0,0c-2.9,0-5.9,0-8.8,0h-23.6c-2.6,0-5.2,0-7.8,0h-0.2c-5.3,0-10.4,2-14.1,5.8c-1.6,1.6-3.2,3.2-4.8,4.8
	c-1.3,1.3-2.6,2.7-4,4c-0.9,1.1-2.2,1.7-3.6,1.9c-1.4-0.1-2.6-0.7-3.5-1.8c-1.4-1.4-2.9-2.8-4.3-4.2s-2.7-2.7-4.1-4.1
	c-1.2-1.1-1.8-2.6-1.8-4.2V233c0-5.2,0-10.4,0-15.6c0-1.7,0.7-3.3,1.9-4.4c3.2-3.1,6.3-6.3,9.5-9.4c2.7-2.7,5.3-5.4,8-8
	c4.2-4,6.6-9.6,6.4-15.5C279.2,175.9,279.2,171.6,279.2,167.5z M161.3,179c19.9-23.4,47-37.7,76.6-40.3v8c0,7.8,0,15.9,0,23.9
	c0.1,2.2-0.8,4.3-2.4,5.8c-3.7,3.6-7.4,7.3-10.9,10.9c-2.1,2.1-4.1,4.1-6.2,6.2c-4.2,4-6.5,9.6-6.2,15.3c0,0.7,0,1.5,0,2.2v0.3
	c-0.1,3.7-1.7,5.4-5.4,5.4h-3.5c-3.3,0-6.6,0.1-9.8,0.1c-3.9,0-7.1,0-10.2-0.1h-0.6c-6,0-11.8,2.4-15.9,6.8
	c-9.1,9.1-18.3,18.4-27.3,27.3l-6,6C132.6,229.2,142.5,201.2,161.3,179z M193.2,308.8c-4.5,4.2-7,10.2-6.8,16.4
	c0.1,7.1,0.1,14.3,0.1,21.3c0,1.9,0,3.8,0,5.8c-3.7-2.6-7.2-5-10.4-7.7c-13.7-11.2-24.7-25.4-32.1-41.5l0,0
	c8.5-8.4,17.1-17,25.4-25.4l12.5-12.5c0.9-1.1,2.3-1.8,3.7-2c1.5,0.2,2.8,0.9,3.8,2l1.6,1.6c1,1,2,2,3.1,3c3.6,3.5,8.5,5.5,13.5,5.5
	h5.5c0.7,0,1.4,0,2.1,0h0.2c3.3,0,4.4,1.3,5,2.7s0.9,2.9-1.7,5.5c-3.6,3.6-7.2,7.2-10.9,10.9C203,299.1,198,304,193.2,308.8
	L193.2,308.8z M322.2,346.5c-34.1,26.8-80.2,32.4-119.8,14.8c0.1-0.2,0.2-0.2,0.2-0.2l-0.6-0.3c0-0.2,0-0.4,0-0.5
	c0.1-11.2,0.1-22.7,0-34.1c-0.1-2.6,0.9-5,2.8-6.7c7.6-7.5,15.6-15.4,25.9-25.8c5.8-5.8,7.5-14.5,4.1-22
	c-3.6-7.7-9.9-11.8-18.4-11.9c-1.2,0-2.4,0-3.6,0h-4.1c-1.6,0.1-3.2-0.6-4.3-1.8c-0.7-0.8-1.5-1.5-2.2-2.2l-0.9-0.9
	c-4.9-4.9-10.2-7.4-15.6-7.4s-10.7,2.5-15.8,7.6l-7.1,7.1c-8.2,8.3-16.5,16.5-24.7,24.8c-0.8-3.1-1.5-6.3-2.4-9.4
	c0-0.2-0.1-0.3-0.1-0.3c0.1-0.1,0.2-0.2,0.2-0.3c14.3-14.2,28.6-28.4,42.3-42.3c1.4-1.5,3.4-2.3,5.4-2.2l0,0c3.1,0,6.1,0,9.2,0H208
	c4.2,0,8.2-1.3,11.5-3.8c5.8-4.3,8.6-10.1,8.1-16.9c-0.3-3.4,1.1-6.8,3.7-9c3.9-3.6,7.6-7.4,11.2-11c1.6-1.6,3.1-3.2,4.7-4.8
	c4.1-3.9,6.3-9.4,6.2-15c-0.1-7.4-0.1-15,0-22.4V138c6.2,0.2,12.4,0.9,18.5,2c-0.7,0.7-1.4,1.3-2.1,2c-4.1,3.9-6.4,9.3-6.2,15
	c0,3.8,0,7.6,0,11.4s0,7.2,0,10.9c0.1,2.1-0.7,4.2-2.3,5.6c-5,4.8-9.9,9.8-14.7,14.6l-2.8,2.8c-3.9,3.8-6.1,9.1-6,14.5
	c0.1,8,0.1,16,0,23.8c-0.1,5.4,2,10.5,5.8,14.3c3.5,3.6,6.5,6.6,9.4,9.4c7.7,7.8,20.2,7.9,28,0.2c0.1-0.1,0.1-0.1,0.2-0.2
	c2.4-2.3,5.5-5.3,8.5-8.5c1.4-1.6,3.5-2.4,5.6-2.2l0,0h9.4h14.8c4.9,0,9.8,0,14.7,0.1h0.2c5.9,0.1,11.6-2.3,15.7-6.6
	c4.2-4.3,8.6-8.7,12.8-12.9l1.6-1.6c3.3,17.2,2.2,33.3-0.2,44.1h-35.8c-1.6-0.1-3.2-0.8-4.3-2c-7.6-7.8-20.2-8-28-0.4
	c-0.3,0.3-0.5,0.5-0.8,0.8c-2.4,2.4-4.8,4.8-7.2,7.2c-9.1,9.1-9.1,20.9,0,30c8.6,8.7,17.2,17.3,25.9,25.9l1.4,1.4
	c2.1,2.1,4.2,4.2,6.5,6.5l0.1,0.1C322.1,346.3,322.1,346.4,322.2,346.5L322.2,346.5z M325.9,327.8c-9-9-18.4-18.3-27.5-27.5
	c-1.6-1.6-1.7-4.1-0.1-5.7c0,0,0.1-0.1,0.1-0.1c2.7-2.9,5.5-5.7,8.7-8.7c0.8-0.8,1.9-1.2,3-1.2c1.1,0,2.1,0.4,2.8,1.2
	c4.5,4.5,10,6.7,16.8,6.7h0.7c3.8-0.1,7.8-0.1,12.8-0.1h9.2h7.7c-5.5,16.2-14.6,31-26.5,43.3L325.9,327.8z"/>
</svg>
