<svg id="Layer_1" data-name="Layer 1" xmlns="http://www.w3.org/2000/svg" viewBox="0 0 466.37 405.39"><defs><style>.cls-1{fill:#eee;}</style></defs><path class="cls-1" d="M466,228.27c-.7-2.1-4.1-4.2-6.6-4.4-2.2-.2-5.1,1.6-7,3.2-6.6,5.8-12.9,11.9-19.3,17.9l-.9-.4c.1-1.2.2-2.4.4-3.5,4.9-25.5,5.3-51.1,0-76.6-12.9-62.7-47.4-109.7-103.5-140.4-38.4-21-79.7-27.9-123-22.1-10,1.3-19.9,4.1-29.8,6.4-3.6.8-6.4,2.9-7,6.9-.8,6,4.4,10.2,10.6,8.4,25-7.2,50.4-9.7,76.2-6.4q71.4,9,118.8,63.1c24,27.5,38.4,59.5,43.6,95.6a188.27,188.27,0,0,1-2.3,66.1c-1.1-2.5-1.8-4.1-2.4-5.8-2.7-7.2-5.3-14.5-8.2-21.7-1.8-4.4-6.1-6.2-10-4.7a7.87,7.87,0,0,0-4.6,10.4c1.4,4,2.9,8,4.4,12,5,13.2,9.8,26.5,14.9,39.6,2.4,6.2,8.1,8.1,12.7,4q21.15-19.2,41.6-39.1C466.3,235.17,466.8,230.77,466,228.27Z"/><path class="cls-1" d="M290.8,381.37c-2.1-.2-4.5.7-6.6,1.3a181.82,181.82,0,0,1-70,6c-47-5.2-87.2-24.9-118.8-60.2C53.2,281.37,39.3,226.17,50.6,163c1,2.2,1.6,3.2,2,4.3,2.8,7.4,5.5,14.8,8.4,22.1,2.1,5.3,6.2,7.7,10.5,6.1,4.6-1.7,6.4-6.2,4.3-11.7Q66.65,159,57.3,134.37c-3-7.9-8.6-9.2-14.8-3.5q-19.2,17.85-38.4,35.8c-4.7,4.4-5.4,8.9-1.9,12.6s8.1,3.3,12.8-1.2c5.4-5.1,10.9-10.2,16.3-15.3,1-.9,2-1.7,3.6-2.9a23,23,0,0,1-.2,3.7,190.12,190.12,0,0,0,1,81.9c15.1,64.8,52.7,111.9,112.6,140.7,38.1,18.3,78.4,23.2,120,16.1a232.79,232.79,0,0,0,24.3-6c4-1.1,5.8-4.3,5.3-8.5S294.6,381.67,290.8,381.37Z"/><path class="cls-1" d="M333.9,288.67c15.7-18.3,33.9-49.4,31.3-93.9A131.69,131.69,0,0,0,233.3,70.57c-2.9,0-5.9.1-8.8.3a131.77,131.77,0,0,0-123.4,139c3,56.5,39,96.9,79,114.3a.77.77,0,0,1,.1-.3,132.13,132.13,0,0,0,135.7-18l.1.1A133.1,133.1,0,0,0,333.9,288.67Zm-71.5-172.8v-9.6a6.58,6.58,0,0,1,2.1-5.1c3.3-3.1,5.7-5.6,7.9-8l.1-.1.2.1c28.9,10.9,50.6,30.2,64.6,57.4,1.4,2.7,2.5,5.5,3.7,8.4.6,1.5,1.2,3.1,2,4.7-6.2,6.1-12.7,12.6-21.1,21a5.91,5.91,0,0,1-4.7,1.9H276.8a19.57,19.57,0,0,0-14.1,5.8l-4.8,4.8c-1.3,1.3-2.6,2.7-4,4a5.56,5.56,0,0,1-3.6,1.9,4.83,4.83,0,0,1-3.5-1.8c-1.4-1.4-2.9-2.8-4.3-4.2l-4.1-4.1a5.6,5.6,0,0,1-1.8-4.2v-23a6,6,0,0,1,1.9-4.4c3.2-3.1,6.3-6.3,9.5-9.4,2.7-2.7,5.3-5.4,8-8a20.46,20.46,0,0,0,6.4-15.5Zm-117.9,11.5c19.9-23.4,47-37.7,76.6-40.3V119a7.49,7.49,0,0,1-2.4,5.8c-3.7,3.6-7.4,7.3-10.9,10.9l-6.2,6.2a19.79,19.79,0,0,0-6.2,15.3v2.5c-.1,3.7-1.7,5.4-5.4,5.4h-3.5c-3.3,0-6.6.1-9.8.1-3.9,0-7.1,0-10.2-.1h-.6a21.7,21.7,0,0,0-15.9,6.8c-9.1,9.1-18.3,18.4-27.3,27.3l-6,6C115.8,177.57,125.7,149.57,144.5,127.37Zm31.9,129.8a21.53,21.53,0,0,0-6.8,16.4c.1,7.1.1,14.3.1,21.3v5.8c-3.7-2.6-7.2-5-10.4-7.7a116.46,116.46,0,0,1-32.1-41.5h0c8.5-8.4,17.1-17,25.4-25.4l12.5-12.5a5.92,5.92,0,0,1,3.7-2,6.16,6.16,0,0,1,3.8,2l1.6,1.6c1,1,2,2,3.1,3a19.5,19.5,0,0,0,13.5,5.5h7.8c3.3,0,4.4,1.3,5,2.7s.9,2.9-1.7,5.5L191,242.77c-4.8,4.7-9.8,9.6-14.6,14.4Zm129,37.7a117,117,0,0,1-119.8,14.8c.1-.2.2-.2.2-.2l-.6-.3v-.5c.1-11.2.1-22.7,0-34.1a8.43,8.43,0,0,1,2.8-6.7c7.6-7.5,15.6-15.4,25.9-25.8a19.6,19.6,0,0,0,4.1-22c-3.6-7.7-9.9-11.8-18.4-11.9h-7.7a5.46,5.46,0,0,1-4.3-1.8c-.7-.8-1.5-1.5-2.2-2.2l-.9-.9c-4.9-4.9-10.2-7.4-15.6-7.4s-10.7,2.5-15.8,7.6l-7.1,7.1c-8.2,8.3-16.5,16.5-24.7,24.8-.8-3.1-1.5-6.3-2.4-9.4a.44.44,0,0,0-.1-.3c.1-.1.2-.2.2-.3,14.3-14.2,28.6-28.4,42.3-42.3a7,7,0,0,1,5.4-2.2h24.5a18.91,18.91,0,0,0,11.5-3.8c5.8-4.3,8.6-10.1,8.1-16.9a10.65,10.65,0,0,1,3.7-9c3.9-3.6,7.6-7.4,11.2-11,1.6-1.6,3.1-3.2,4.7-4.8a20.23,20.23,0,0,0,6.2-15c-.1-7.4-.1-15,0-22.4V86.37a127.63,127.63,0,0,1,18.5,2c-.7.7-1.4,1.3-2.1,2a19.71,19.71,0,0,0-6.2,15v22.3a7,7,0,0,1-2.3,5.6c-5,4.8-9.9,9.8-14.7,14.6l-2.8,2.8a19.86,19.86,0,0,0-6,14.5c.1,8,.1,16,0,23.8a19.62,19.62,0,0,0,5.8,14.3c3.5,3.6,6.5,6.6,9.4,9.4a19.77,19.77,0,0,0,28,.2l.2-.2c2.4-2.3,5.5-5.3,8.5-8.5a6.61,6.61,0,0,1,5.6-2.2h24.2c4.9,0,9.8,0,14.7.1h.2a21.23,21.23,0,0,0,15.7-6.6c4.2-4.3,8.6-8.7,12.8-12.9l1.6-1.6a112.93,112.93,0,0,1-.2,44.1H311.7a6.43,6.43,0,0,1-4.3-2,19.86,19.86,0,0,0-28-.4l-.8.8-7.2,7.2c-9.1,9.1-9.1,20.9,0,30,8.6,8.7,17.2,17.3,25.9,25.9l1.4,1.4,6.5,6.5.1.1a.37.37,0,0,0,.1.3Zm3.7-18.7c-9-9-18.4-18.3-27.5-27.5a4,4,0,0,1-.1-5.7l.1-.1c2.7-2.9,5.5-5.7,8.7-8.7a4.23,4.23,0,0,1,3-1.2,3.63,3.63,0,0,1,2.8,1.2,22.61,22.61,0,0,0,16.8,6.7h.7c3.8-.1,7.8-.1,12.8-.1h16.9a116,116,0,0,1-26.5,43.3Z"/></svg>