<?xml version="1.0" encoding="utf-8"?>
<!-- Generator: Adobe Illustrator 24.3.0, SVG Export Plug-In . SVG Version: 6.00 Build 0)  -->
<svg version="1.1" id="Layer_1" xmlns="http://www.w3.org/2000/svg" xmlns:xlink="http://www.w3.org/1999/xlink" x="0px" y="0px"
	 viewBox="0 0 500 500" style="enable-background:new 0 0 500 500;" xml:space="preserve">
<path d="M381.3,102.2c18.3,14.3,32.6,31.1,45,50.9c1.6,2.7,3.2,5.3,4.7,8l-0.4,0.3c-12.4,10.9-24.8,21.8-37,32.8
	c-12.8,11.4-15.5,30.4-6.5,45c2.1,3.3,4.5,6.3,7.1,9.2c9.8,11.2,9,23.5-2.2,33.5c-2.9,2.6-5.8,5.3-8.8,7.7
	c-9.4,7.6-13.9,17.6-14.5,29.6c-0.8,17.2-2.3,34.3-3,51.5c-0.3,7.9-4,15.2-10.2,20.1c-3.6,2.9-6.9,6.1-10.4,9.1
	c-8.4,6.8-13.3,17-13.5,27.8c-0.3,6.3-0.7,12.5-1.2,18.8c-12.2,4.9-24.8,8.5-37.7,10.9c-0.8-4-2.7-7.7-5.4-10.6
	c-0.9-1-2-1.9-3.3-3.1l5.9-3.6c12.8-7.7,15.7-19.7,8.1-32.5c-5.7-9.6-11.5-19.3-17.4-28.8c-1.5-2.4-14-18.4-14-18.4
	c-7.1-10-15.9-11.4-30-2.8c-4.2,2.5-8.4,5-12.9,7.7c-5.6-9.3-11-18.2-16.3-27.2c-0.5-1.1-0.7-2.2-0.6-3.4c0-15.9,0.1-31.7,0.1-47.6
	c0-12.1-5.2-19.4-16.6-23.3l-20.5-6.9c7.7-6.5,8.7-14.6,8.4-23.2s-0.1-17.3-0.1-26c0-11.3-5.7-19.1-16.5-22.3
	c-12.2-3.6-24.4-7.1-36.6-10.5c-8-2.2-11.5,0.6-11.5,9c0,15,0,30,0,44.9c0,10.3-1.2,20.8,6.1,30.1c-4.4,4.1-8.5,7.8-12.3,11.8
	c-2.3,2.7-5.8,4.2-9.3,4c-20.7-0.2-41.3-0.1-62-0.1c-6.2,0-8.7,2.6-8.7,8.8c0,3.6,0,7.2,0,10.8c0,14.7,8.9,23.6,23.4,23.6
	c19.3,0,38.6,0,57.9,0h4.9c0,7.6-0.1,14.5,0.1,21.4c0.2,2.8-0.9,5.6-3,7.5c-14.5,14.3-28.8,28.8-43.3,43.1c-2.8,2.5-4.3,6.2-4.1,9.9
	c0.1,20.7,0.1,41.3,0.1,62v1.6c0,0.1,0,0.3,0,0.4c0.2,10.9,9.3,19.6,20.2,19.4c13.7,0.5,22.8-9,22.9-22.7
	c0.1-12.4,0.4-24.9-0.1-37.3c-0.3-6.4,1.5-10.9,6.3-15.2c7.6-6.8,14.6-14.4,22.6-22.5c0,13-0.2,24.8,0.1,36.6c0.1,3.5,1,7,2.6,10.1
	c7.4,13.5,15.7,26.5,22.6,40.3c4.2,8.5,9.6,11.7,19,10.9c8.7-0.8,15.8-3.5,20.2-11.2c4.5-7.9,3.6-15.8-1.2-23.4
	c-6-9.5-12-18.9-17.8-28.6c-1.5-2.5-2.3-5.4-2.4-8.3c-0.2-15.1-0.1-30.2-0.1-45.4v-11.9l20.1-3.6c0.3,0.5,1.1,1.7,1.9,3
	c17.7,29.5,35.4,59,53.2,88.5c1.7,2.9,2.1,4.8,0.1,7.9c-6.2,9.4-3.7,21.7,5.3,28.4c8.9,6.7,21.5,5.4,28.9-2.9
	c0.5-0.6,1.1-1.3,1.5-1.9c69.2-10.7,128.9-54.2,160.4-116.8c48.8-97,17.7-213.3-68.4-274.1L381.3,102.2z M345.4,439.9
	c0.4-6.1,0.7-12.1,2-17.9c0.9-3.9,4-7.6,6.9-10.6c5.4-5.6,11.7-10.3,17.1-15.9c5.9-6.2,8.3-14.1,8.8-22.5c1-17.9,2.3-35.9,3.2-53.8
	c0.2-7.1,3.4-13.8,8.9-18.4c5.4-4.7,11.1-9.3,15.6-14.8c10.8-13.1,10.1-32-0.8-45.1c-2.9-3.4-6-6.8-8.2-10.6
	c-4.4-7.8-3.2-18.1,3.3-24.1c11.7-10.9,23.9-21.3,35.9-31.9c33.8,71.9,22.2,157-29.8,217.1C390.6,411.5,369.3,428.1,345.4,439.9z
	 M271.9,468.6c-4,0.1-7.3-3.1-7.4-7.2c0-3.8,3-7,6.8-7.2c4-0.2,7.3,2.9,7.5,6.8s-2.9,7.3-6.8,7.5
	C271.9,468.6,271.9,468.6,271.9,468.6z M231.2,377.6c6.3-3.7,12.1-7.4,18.3-10.7c3.6-1.9,6.9-0.6,8.9,2.7
	c9.5,15.7,19,31.5,28.4,47.3c2,3.4,1.5,7-1.8,9.2c-5.8,3.9-11.9,7.4-18.1,11.1L231.2,377.6z M149.5,420.7c-0.1-15.6-0.1-31.1,0-46.6
	c0-1.7,0.7-3.4,1.7-4.7c3.7-4.2,7.6-8,11.5-12l1.1,0.5v27.7c0,10.2-0.2,20.3,0.1,30.5c0.1,2.8,0.8,5.5,2.2,7.9
	c6.3,10.5,12.9,20.9,19.4,31.2c2,3.1,3.7,6.3,1.5,10s-5.9,3.8-9.5,3.4c-1.5-0.2-2.8-1.1-3.7-2.3c-7.9-13.6-15.7-27.2-23.4-40.8
	C149.8,423.9,149.5,422.3,149.5,420.7L149.5,420.7z M42,288.9h4.7c19,0,38-0.1,57,0.1c3.6,0.2,7.1-1.2,9.6-3.9
	c6-6.2,12.2-12.4,18.4-18.4c3.5-3.4,4.7-7,1.9-11.2c-5.1-7.7-6.1-16.2-5.8-25.2c0.4-13,0.1-26,0.1-39.7c10.9,3.2,21.4,6,31.6,9.5
	c2,0.6,4,4.3,4.1,6.6c0.4,10.9,0.4,21.9,0.1,32.8c-0.1,2.1-1.5,4.5-2.9,6.2c-2.6,3.1-5.7,5.7-8.5,8.7c-4.8,5-3.5,10.6,3.1,12.9
	c9.9,3.4,19.8,6.6,29.8,10c6.3,2.1,7.4,3.7,7.4,10.5c0,13.2-0.4,26.4,0.1,39.5c0.4,11.7-4.7,13.1-14.4,11.5v-35.1h-14.5
	c0,9.4-0.1,18.7,0.1,28.1c0.2,3-1,5.8-3.3,7.8c-21.4,21.2-42.5,42.6-63.9,63.7c-3.3,3-5.1,7.4-4.8,11.9c0.3,13.6,0.1,27.2,0.1,40.9
	c0,11.7-2,13.5-14.1,12.3c-0.1-1.2-0.2-2.5-0.2-3.8c0-20.4-0.1-40.7,0.1-61.1c0.1-2.3,1-4.5,2.5-6.1c14.5-14.7,29.1-29.4,43.8-43.9
	c2.7-2.4,4.1-5.9,3.9-9.5c-0.2-10.3-0.1-20.7-0.1-31c0-7.3-2.4-9.5-9.8-9.5H54.4C42.6,303.3,41,301.6,42,288.9z"/>
<path d="M199.3,46.1c-88.6,19.1-157.1,92.6-169,183.7l15.5,2c11-84.3,74.1-152.3,156-170.3L199.3,46.1z"/>
<path d="M237.5,82.1l0.1,162.8h14.5v-85.7h35.8v10.4c0,3.4-0.1,6.9,0,10.3c0.2,6.8,4.7,6.4,14.3,6.2c17.3-0.3,44.5,0.5,65.4,0.3
	c8.8-0.1,13.7,0.1,13.7-6.4c0.1-33.2,0.1-66.5,0-99.7c0-5-2.9-7.7-8-7.7c-10.2-0.1-20.4,0-30.5,0c-1.4,0-2.9-0.1-4.6-0.2
	c0-4.4,0-8.4,0-12.4c-0.1-6.4-2.6-8.9-9.1-8.9c-16.3,0-32.7,0-49,0h-17.8c1.4-4.8,3.4-9,3.8-13.3c1-10.7-6.6-20-17.4-22.3
	c-9.9-2.1-20.3,3.8-24.1,13.6c-3.7,9.9,0.4,21.1,9.7,26.2c2.4,1.3,4.1,2.6,3.2,5.4V66 M337.8,87.4h28.8v85.7h-28.8V87.4z
	 M316.6,173.3c-4.6,0.2-9.2,0.1-14.1,0.1V159c4.9,0,9.5-0.1,14.1,0c3.9,0.1,7,3.5,6.9,7.4C323.4,170.1,320.4,173.1,316.6,173.3
	L316.6,173.3z M252.1,65.7h71.3v78.5h-71.3L252.1,65.7L252.1,65.7z M237.6,36.7c0-4,3.2-7.2,7.2-7.2s7.2,3.2,7.2,7.2
	s-3.2,7.2-7.2,7.2h-0.1C240.7,43.8,237.6,40.6,237.6,36.7L237.6,36.7z"/>
</svg>
