<svg id="Layer_1" data-name="Layer 1" xmlns="http://www.w3.org/2000/svg" viewBox="0 0 500 500"><path d="M472.66,283.32c-.07-6.18-2.57-8.75-8.73-8.76-20.66,0-41.33-.13-62,.08a11.48,11.48,0,0,1-9.32-4c-3.77-4-7.94-7.68-12.29-11.83,7.31-9.28,6.09-19.79,6.09-30.08q0-22.45,0-44.92c0-8.45-3.56-11.25-11.52-9-12.22,3.47-24.44,6.94-36.62,10.54-10.83,3.2-16.49,10.91-16.53,22.26,0,8.68.22,17.38-.08,26s.73,16.78,8.43,23.25l-20.5,6.86C298.22,267.63,293,274.91,293,287c0,15.88.08,31.75.08,47.62a7.07,7.07,0,0,1-.63,3.42c-5.3,9-10.71,17.94-16.3,27.25-4.47-2.67-8.69-5.17-12.88-7.71-14.09-8.57-22.91-7.2-30,2.81,0,0-12.5,15.93-14,18.37-5.9,9.54-11.62,19.19-17.36,28.83-7.67,12.87-4.69,24.85,8.07,32.55l5.89,3.59c-1.26,1.17-2.35,2.06-3.3,3.08a21.54,21.54,0,0,0-5.43,10.64,198.61,198.61,0,0,1-37.72-10.9q-.75-9.36-1.18-18.75A37,37,0,0,0,154.7,400c-3.53-3-6.81-6.3-10.44-9.15a27.06,27.06,0,0,1-10.17-20.15c-.74-17.19-2.19-34.34-3-51.53-.58-12.08-5.08-22-14.49-29.65-3-2.46-5.85-5.14-8.77-7.72-11.21-10-12-22.28-2.2-33.5a69.85,69.85,0,0,0,7.15-9.18,35.44,35.44,0,0,0-6.53-45c-12.22-11-24.65-21.86-37-32.77l-.36-.32q2.28-4,4.73-8a201.66,201.66,0,0,1,73.58-69.35l.11,162.77h14.5V160.73h35.76v10.45c0,3.45-.08,6.89,0,10.34.22,6.76,4.68,6.42,14.27,6.25,17.28-.31,44.51.53,65.42.31,8.79-.09,13.66.07,13.67-6.38q.11-49.86,0-99.73c0-5-2.87-7.66-8-7.7-10.18-.09-20.36,0-30.55,0-1.44,0-2.87-.13-4.57-.21,0-4.39,0-8.41,0-12.44-.06-6.4-2.57-8.89-9.06-8.9q-24.48,0-49,0H172c1.44-4.8,3.43-9,3.84-13.27,1-10.69-6.59-20-17.43-22.29-9.88-2.11-20.29,3.79-24.1,13.64A21.3,21.3,0,0,0,144,57c2.39,1.31,4.13,2.64,3.24,5.38v5.17l-.58-1.16A216.56,216.56,0,0,0,210.77,473.9c.47.65,1,1.29,1.52,1.91a21.43,21.43,0,0,0,28.87,2.88c9-6.74,11.49-19.05,5.32-28.42-2-3.08-1.62-5,.09-7.86q26.69-44.18,53.17-88.48c.76-1.26,1.58-2.5,1.87-2.95l20.12,3.58v11.87c0,15.13.12,30.26-.11,45.38a17.49,17.49,0,0,1-2.42,8.28c-5.72,9.65-11.77,19.1-17.76,28.59-4.78,7.59-5.69,15.44-1.19,23.35,4.4,7.72,11.47,10.42,20.19,11.17,9.38.81,14.79-2.45,19-10.91,6.9-13.76,15.23-26.79,22.62-40.3a23.14,23.14,0,0,0,2.64-10.12c.32-11.76.13-23.54.13-36.57,8.07,8.1,15,15.66,22.64,22.5,4.76,4.28,6.52,8.8,6.26,15.17-.52,12.41-.2,24.86-.14,37.28.06,13.69,9.15,23.14,22.89,22.66a19.82,19.82,0,0,0,20.22-19.81v-1.61c0-20.67-.08-41.33.07-62a12.76,12.76,0,0,0-4.15-9.9c-14.49-14.31-28.8-28.8-43.29-43.11a9.15,9.15,0,0,1-3-7.46c.22-6.87.07-13.76.07-21.35h4.87q29,0,57.94,0c14.59,0,23.4-8.91,23.44-23.57C472.68,290.51,472.7,286.92,472.66,283.32ZM247.58,89h28.78v85.67H247.58Zm-21.21,85.84c-4.59.19-9.19.05-14.09.05V160.52c4.93,0,9.53-.14,14.13,0a7.13,7.13,0,0,1,0,14.25ZM161.85,67.29h71.32V145.8H161.85Zm-14.54-29a7.16,7.16,0,1,1,7.05,7.15A7.22,7.22,0,0,1,147.31,38.3ZM91.88,391.35A201,201,0,0,1,62.06,174.28c12,10.59,24.16,21,35.88,31.93,6.49,6,7.64,16.3,3.27,24.1-2.16,3.86-5.32,7.18-8.18,10.61C82.09,254,81.42,272.85,92.19,286c4.51,5.5,10.14,10.15,15.56,14.83a24.65,24.65,0,0,1,8.89,18.36c.94,17.94,2.19,35.86,3.23,53.8.49,8.49,2.89,16.35,8.77,22.54,5.34,5.62,11.65,10.33,17.05,15.91,2.92,3,6.06,6.75,6.92,10.64,1.27,5.76,1.61,11.72,2,17.86A201.68,201.68,0,0,1,91.88,391.35ZM228,468.59a7.16,7.16,0,1,1,7.49-7.15A7.26,7.26,0,0,1,228,468.59Zm5-31.35c-6.2-3.79-12.29-7.23-18.06-11.15-3.26-2.21-3.8-5.77-1.77-9.18q14.07-23.7,28.38-47.27c2-3.31,5.38-4.63,8.93-2.72,6.13,3.29,12,7,18.27,10.71Zm117.45-16.57a9.94,9.94,0,0,1-1,4.68q-11.52,20.5-23.36,40.84a5.56,5.56,0,0,1-3.7,2.33c-3.62.43-7.29.28-9.51-3.41s-.47-6.81,1.51-9.95c6.54-10.37,13.12-20.71,19.4-31.22A17,17,0,0,0,336,416c.26-10.16.1-20.33.11-30.5V357.83l1.06-.47c3.86,4,7.82,7.83,11.49,12a7.72,7.72,0,0,1,1.74,4.7C350.53,389.57,350.51,405.12,350.44,420.67ZM445.58,303.3H381.81c-7.41,0-9.75,2.29-9.76,9.55,0,10.33.11,20.66-.07,31a12.19,12.19,0,0,0,3.94,9.55q22,21.78,43.77,43.87a9.81,9.81,0,0,1,2.55,6.14c.19,20.36.12,40.72.11,61.08,0,1.29-.16,2.59-.23,3.84C410,469.5,408,467.67,408,456c0-13.63-.17-27.25.09-40.87a14.94,14.94,0,0,0-4.84-11.89c-21.4-21.15-42.58-42.52-63.94-63.71a9.73,9.73,0,0,1-3.26-7.81c.22-9.37.08-18.75.08-28.1h-14.5v35.14c-9.63,1.53-14.79.15-14.37-11.55.49-13.15.11-26.34.12-39.52,0-6.79,1.1-8.34,7.41-10.45,9.92-3.31,19.88-6.53,29.76-9.95,6.56-2.28,7.86-7.88,3.11-12.93-2.77-2.94-5.9-5.56-8.47-8.66-1.44-1.73-2.87-4.1-2.92-6.22-.29-10.92-.38-21.86.06-32.77.09-2.34,2.13-6,4.09-6.64,10.25-3.54,20.76-6.33,31.64-9.53,0,13.7-.32,26.72.11,39.71.3,9.05-.71,17.51-5.76,25.24-2.75,4.21-1.54,7.83,1.94,11.19q9.36,9.06,18.4,18.43A12.15,12.15,0,0,0,396.3,289c19-.13,38-.06,57-.06H458C459,301.59,457.42,303.3,445.58,303.3Z"/><path d="M438.83,235.48l15.47-2C441.73,137,365.76,60.34,269.55,47L267.4,62.41C356.67,74.82,427.17,146,438.83,235.48Z"/></svg>