<?xml version="1.0" encoding="utf-8"?>
<!-- Generator: Adobe Illustrator 24.3.0, SVG Export Plug-In . SVG Version: 6.00 Build 0)  -->
<svg version="1.1" id="Layer_1" xmlns="http://www.w3.org/2000/svg" xmlns:xlink="http://www.w3.org/1999/xlink" x="0px" y="0px"
	 viewBox="0 0 500 500" style="enable-background:new 0 0 500 500;" xml:space="preserve">
<path d="M459.86,373.78c-1.68-2.71-1.83-4.68-0.22-7.63c25.94-47.6,35.55-98.27,27.27-151.94c-9.67-62.69-39.37-114.24-89.38-153.11
	C340.68,16.92,276.07,1.73,205.2,14.24c-12.67,2.24-25.02,6.29-38.16,9.67c2.14,5.86,3.86,10.58,5.71,15.65
	c19.19-6.72,38.25-11.08,57.9-12.75c19.82-1.69,39.47-0.78,59.27,2.8c0,2.23,0,4.05,0,5.87c0,18.32-0.14,36.65,0.06,54.97
	c0.21,19.24,13.79,35.23,32.69,38.61c4.22,0.76,8.61,0.78,12.92,0.81c16.56,0.12,26.26,9.84,26.29,26.53
	c0.01,4.33,0.15,8.67-0.03,12.99c-0.55,13.5,4.39,24.54,14.03,33.93c13.72,13.35,26.95,27.2,40.72,40.49
	c6.3,6.08,9.81,14.57,9.29,23.32c-0.3,5.13,0.04,10.3-0.07,15.44c-0.28,12.54,4.18,23.05,13.16,31.76
	c5.62,5.45,11.15,10.99,16.56,16.66c0.91,0.96,1.71,3.04,1.29,4.08c-2.53,6.24-5.43,12.32-8.28,18.61
	c-14.25-12.36-21.94-12.98-37.62-3.45c-4.66,2.83-9.36,5.6-14.32,8.57c-6.22-10.35-12.24-20.3-18.14-30.31
	c-0.62-1.05-0.71-2.52-0.71-3.8c0-17.66,0.09-35.31,0.1-52.97c0.01-13.46-5.82-21.55-18.47-25.8c-7.32-2.46-14.63-4.9-22.8-7.63
	c8.56-7.2,9.7-16.19,9.37-25.86c-0.33-9.65-0.04-19.32-0.08-28.98c-0.05-12.63-6.35-21.2-18.39-24.76
	c-13.55-4-27.15-7.86-40.74-11.72c-8.85-2.51-12.81,0.6-12.82,10c-0.01,16.66,0,33.32,0,49.98c0,11.45-1.36,23.13,6.77,33.45
	c-4.84,4.62-9.47,8.69-13.67,13.17c-2.93,3.12-5.97,4.46-10.37,4.41c-22.98-0.23-45.97-0.13-68.96-0.09
	c-6.85,0.01-9.63,2.87-9.71,9.75c-0.05,4-0.02,8-0.01,11.99c0.04,16.3,9.85,26.19,26.07,26.21c21.49,0.03,42.97,0.01,64.46,0.01
	h5.42c0,8.44-0.17,16.1,0.08,23.75c0.11,3.44-0.89,5.87-3.35,8.3c-16.12,15.92-32.03,32.04-48.16,47.96
	c-3.19,3.15-4.65,6.48-4.62,11.02c0.17,22.99,0.08,45.98,0.08,68.97v5.88c-8.44-1.7-39.98-10.12-39.98-10.12
	C53.11,419.43-0.52,282.9,38.87,176.83c0,0,5.91-17.19,7.5-20.56c11.87-25.3,27.67-47.77,47.79-67.17c1.01-0.97,2.13-1.81,3.92-3.33
	v179.76h16.14v-95.39H154c0,4.04,0,7.83,0,11.62c0,3.83-0.09,7.67,0.03,11.49c0.25,7.52,5.2,7.15,15.87,6.96
	c19.23-0.35,49.52,0.58,72.77,0.35c9.78-0.1,15.19,0.08,15.21-7.1c0.08-36.98,0.08-73.96,0.01-110.95
	c-0.01-5.54-3.19-8.52-8.85-8.57c-11.33-0.1-22.65-0.02-33.98-0.04c-1.6,0-3.2-0.14-5.09-0.23c0-4.89,0.03-9.36-0.01-13.83
	c-0.07-7.12-2.85-9.89-10.08-9.9c-18.16-0.03-36.31-0.01-54.47-0.01h-19.9c1.6-5.34,3.82-9.97,4.27-14.76
	c1.11-11.9-7.33-22.24-19.38-24.8C99.41,8.04,87.83,14.59,83.6,25.56c-4.2,10.87,0.28,23.45,10.75,29.2
	c2.65,1.46,4.59,2.94,3.6,5.98c-0.75,2.31-1.82,4.88-3.55,6.44C27.84,127-0.45,201.45,13.8,289.69
	c12.31,76.25,54.48,133.33,122.01,171.01c32.4,18.07,67.51,27.66,104.64,28.95c15.29,0.53,25.4-9.98,25.47-25.2
	c0.06-13.83,0.42-27.67-0.15-41.47c-0.29-7.09,1.66-12.11,6.96-16.88c8.46-7.61,16.2-16.02,25.19-25.03c0,14.5-0.22,27.6,0.14,40.68
	c0.1,3.8,1.13,7.94,2.94,11.26c8.22,15.03,17.48,29.53,25.16,44.83c4.72,9.41,10.74,13.04,21.17,12.14
	c9.71-0.83,17.57-3.83,22.46-12.42c5.01-8.8,4-17.54-1.32-25.97c-6.66-10.56-13.39-21.08-19.76-31.81
	c-1.59-2.68-2.65-6.11-2.69-9.21c-0.26-16.82-0.12-33.65-0.12-50.47v-13.21c7.68-1.37,14.73-2.62,22.38-3.98
	c0.32,0.5,1.23,1.87,2.08,3.29c19.7,32.82,39.36,65.66,59.15,98.42c1.9,3.14,2.35,5.32,0.09,8.74c-6.86,10.43-4.05,24.12,5.92,31.61
	c9.91,7.45,23.77,6.07,32.12-3.2c8.32-9.23,8.2-23.12-0.32-32.25c-1.06-1.14-2.27-2.13-3.67-3.43c2.59-1.58,4.57-2.8,6.55-4
	c14.19-8.57,17.51-21.89,8.97-36.21C472.78,395.14,466.43,384.39,459.86,373.78z M209.61,90.32h32.01v95.29h-32.01V90.32z
	 M186.02,185.81c-5.11,0.21-10.23,0.05-15.68,0.05v-15.94c5.49,0,10.61-0.16,15.72,0.05c4.7,0.19,7.89,3.6,7.88,7.94
	C193.93,182.22,190.72,185.62,186.02,185.81z M114.24,66.2h79.34v87.34h-79.34V66.2z M98.07,33.95c0-4.51,3.83-8.17,8.33-7.97
	c4.29,0.2,7.73,3.91,7.59,8.2c-0.14,4.29-3.79,7.79-8.08,7.72C101.6,41.84,98.06,38.25,98.07,33.95z M354.1,458.77
	c2.21,3.5,4.16,6.94,1.68,11.07c-2.47,4.11-6.55,4.27-10.57,3.8c-1.48-0.17-3.38-1.32-4.12-2.59
	c-8.79-15.07-17.43-30.23-25.99-45.43c-0.84-1.49-1.13-3.46-1.14-5.21c-0.08-17.3-0.11-34.6,0.04-51.9
	c0.01-1.77,0.78-3.92,1.94-5.23c4.08-4.59,8.49-8.89,12.77-13.3l1.19,0.53v30.78c0,11.31-0.17,22.63,0.12,33.93
	c0.08,2.98,0.98,6.28,2.5,8.83C339.51,435.74,346.83,447.24,354.1,458.77z M346.03,329.3v-39.1H329.9c0,10.41-0.16,20.84,0.09,31.26
	c0.09,3.66-1.07,6.14-3.63,8.68c-23.76,23.58-47.32,47.35-71.13,70.88c-3.88,3.83-5.49,7.8-5.38,13.22
	c0.29,15.15,0.1,30.31,0.1,45.46c0,12.97-2.28,15.01-15.72,13.68c-0.09-1.38-0.25-2.83-0.26-4.27c-0.02-22.65-0.09-45.3,0.11-67.95
	c0.02-2.31,1.22-5.17,2.84-6.83c16.1-16.4,32.35-32.64,48.69-48.81c3.07-3.04,4.45-6.28,4.38-10.61
	c-0.2-11.49-0.05-22.98-0.07-34.47c-0.02-8.07-2.62-10.62-10.86-10.62c-23.65-0.01-47.29,0-70.94,0c-13.17,0-14.9-1.9-13.85-15.99
	h5.22c21.15,0,42.3-0.08,63.44,0.07c4.3,0.03,7.64-1.15,10.65-4.29c6.68-6.97,13.53-13.79,20.47-20.5
	c3.86-3.74,5.21-7.76,2.16-12.44c-5.62-8.6-6.75-18.01-6.41-28.08c0.48-14.46,0.12-28.94,0.12-44.18c12.11,3.55,23.8,6.65,35.2,10.6
	c2.18,0.75,4.45,4.78,4.55,7.38c0.48,12.14,0.39,24.31,0.07,36.46c-0.06,2.36-1.65,5-3.25,6.92c-2.86,3.44-6.34,6.37-9.42,9.64
	c-5.29,5.61-3.84,11.85,3.46,14.38c10.99,3.81,22.07,7.38,33.1,11.07c7.02,2.35,8.25,4.07,8.25,11.63
	c0.01,14.66-0.41,29.33,0.13,43.96C362.49,329.47,356.74,331,346.03,329.3z M445.76,297.09c-2.61-3.58-3.4-8.95-3.77-13.61
	c-0.67-8.61,0.06-17.34-0.69-25.94c-0.82-9.45-5.6-17.25-12.32-23.92c-14.18-14.08-28.19-28.34-42.45-42.34
	c-5.95-5.84-8.84-12.57-8.74-20.94c0.09-7.97,0.37-16.08-0.9-23.89c-3.03-18.68-19.23-32.01-38.19-32.55
	c-4.97-0.14-10.07,0.05-14.87-1c-9.72-2.11-17.43-10.64-17.67-20.49c-0.48-19.63-0.14-39.27-0.14-58.96
	c124.81,30.76,195.63,164.33,157.31,282.88C457.18,309.75,450.76,303.94,445.76,297.09z M450.2,473.72
	c-4.46,0.23-8.33-3.47-8.33-7.96c0-4.29,3.54-7.9,7.83-7.97c4.28-0.07,7.96,3.43,8.09,7.71C457.93,469.78,454.49,473.5,450.2,473.72
	z M464.7,426.44c-6.42,4.36-13.2,8.19-20.09,12.4c-13.35-22.26-26.41-44.03-39.77-66.31c6.95-4.11,13.51-8.25,20.33-11.91
	c3.95-2.12,7.68-0.66,9.93,3.03c10.63,17.46,21.14,35,31.58,52.58C468.93,420.02,468.33,423.98,464.7,426.44z"/>
</svg>
