<?xml version="1.0" encoding="utf-8"?>
<!-- Generator: Adobe Illustrator 24.3.0, SVG Export Plug-In . SVG Version: 6.00 Build 0)  -->
<svg version="1.1" id="Layer_1" xmlns="http://www.w3.org/2000/svg" xmlns:xlink="http://www.w3.org/1999/xlink" x="0px" y="0px"
	 viewBox="0 0 500 500" style="enable-background:new 0 0 500 500;" xml:space="preserve">
<path d="M444.6,371.3c-1.5-2.5-1.7-4.3-0.2-7c23.8-43.7,32.6-90.2,25-139.4c-8.9-57.5-36.1-104.8-82-140.5
	c-52.2-40.5-111.4-54.5-176.5-43c-11.6,2.1-23,5.8-35,8.9c2,5.4,3.5,9.7,5.2,14.4c17.6-6.2,35.1-10.2,53.1-11.7
	c18.2-1.6,36.2-0.7,54.4,2.6c0,2,0,3.7,0,5.4c0,16.8-0.1,33.6,0.1,50.4c0.2,17.7,12.7,32.3,30,35.4c3.9,0.7,7.9,0.7,11.9,0.7
	c15.2,0.1,24.1,9,24.1,24.3c0,4,0.1,8,0,11.9c-0.5,12.4,4,22.5,12.9,31.1c12.6,12.2,24.7,25,37.4,37.2c5.8,5.6,9,13.4,8.5,21.4
	c-0.3,4.7,0,9.5-0.1,14.2c-0.3,11.5,3.8,21.1,12.1,29.1c5.2,5,10.2,10.1,15.2,15.3c0.8,0.9,1.6,2.8,1.2,3.7
	c-2.3,5.7-5,11.3-7.6,17.1c-13.1-11.3-20.1-11.9-34.5-3.2c-4.3,2.6-8.6,5.1-13.1,7.9c-5.7-9.5-11.2-18.6-16.6-27.8
	c-0.6-1-0.7-2.3-0.7-3.5c0-16.2,0.1-32.4,0.1-48.6c0-12.3-5.3-19.8-16.9-23.7c-6.7-2.3-13.4-4.5-20.9-7c7.9-6.6,8.9-14.9,8.6-23.7
	c-0.3-8.9,0-17.7-0.1-26.6c0-11.6-5.8-19.5-16.9-22.7c-12.4-3.7-24.9-7.2-37.4-10.8c-8.1-2.3-11.8,0.6-11.8,9.2
	c0,15.3,0,30.6,0,45.9c0,10.5-1.2,21.2,6.2,30.7c-4.4,4.2-8.7,8-12.5,12.1c-2.7,2.9-5.5,4.1-9.5,4c-21.1-0.2-42.2-0.1-63.3-0.1
	c-6.3,0-8.8,2.6-8.9,8.9c0,3.7,0,7.3,0,11c0,15,9,24,23.9,24c19.7,0,39.4,0,59.1,0h5c0,7.7-0.2,14.8,0.1,21.8
	c0.1,3.2-0.8,5.4-3.1,7.6c-14.8,14.6-29.4,29.4-44.2,44c-2.9,2.9-4.3,5.9-4.2,10.1c0.2,21.1,0.1,42.2,0.1,63.3v5.4
	c-7.7-1.6-36.7-9.3-36.7-9.3C71.5,413,22.3,287.7,58.5,190.4c0,0,5.4-15.8,6.9-18.9c10.9-23.2,25.4-43.8,43.8-61.6
	c0.9-0.9,2-1.7,3.6-3.1v164.9h14.8v-87.5h36.5c0,3.7,0,7.2,0,10.7s-0.1,7,0,10.5c0.2,6.9,4.8,6.6,14.6,6.4
	c17.6-0.3,45.4,0.5,66.8,0.3c9-0.1,13.9,0.1,14-6.5c0.1-33.9,0.1-67.9,0-101.8c0-5.1-2.9-7.8-8.1-7.9c-10.4-0.1-20.8,0-31.2,0
	c-1.5,0-2.9-0.1-4.7-0.2c0-4.5,0-8.6,0-12.7c-0.1-6.5-2.6-9.1-9.2-9.1c-16.7,0-33.3,0-50,0H138c1.5-4.9,3.5-9.1,3.9-13.5
	c1-10.9-6.7-20.4-17.8-22.8c-10.1-2.1-20.7,3.9-24.6,13.9c-3.9,10,0.3,21.5,9.9,26.8c2.4,1.3,4.2,2.7,3.3,5.5
	c-0.7,2.1-1.7,4.5-3.3,5.9c-61.1,54.9-87,123.2-74,204.2c11.3,70,50,122.3,111.9,156.9c29.7,16.6,61.9,25.4,96,26.6
	c14,0.5,23.3-9.2,23.4-23.1c0.1-12.7,0.4-25.4-0.1-38c-0.3-6.5,1.5-11.1,6.4-15.5c7.8-7,14.9-14.7,23.1-23c0,13.3-0.2,25.3,0.1,37.3
	c0.1,3.5,1,7.3,2.7,10.3c7.5,13.8,16,27.1,23.1,41.1c4.3,8.6,9.9,12,19.4,11.1c8.9-0.8,16.1-3.5,20.6-11.4
	c4.6-8.1,3.7-16.1-1.2-23.8c-6.1-9.7-12.3-19.3-18.1-29.2c-1.5-2.5-2.4-5.6-2.5-8.5c-0.2-15.4-0.1-30.9-0.1-46.3v-12.1
	c7-1.3,13.5-2.4,20.5-3.7c0.3,0.5,1.1,1.7,1.9,3c18.1,30.1,36.1,60.2,54.3,90.3c1.7,2.9,2.2,4.9,0.1,8c-6.3,9.6-3.7,22.1,5.4,29
	c9.1,6.8,21.8,5.6,29.5-2.9c7.6-8.5,7.5-21.2-0.3-29.6c-1-1-2.1-2-3.4-3.1c2.4-1.4,4.2-2.6,6-3.7c13-7.9,16.1-20.1,8.2-33.2
	C456.5,390.9,450.6,381.1,444.6,371.3z M215,111.3h29.4v87.4H215V111.3z M193.4,198.9c-4.7,0.2-9.4,0-14.4,0v-14.6
	c5,0,9.7-0.1,14.4,0c4.3,0.2,7.2,3.3,7.2,7.3S197.7,198.7,193.4,198.9z M127.5,89.1h72.8v80.2h-72.8V89.1z M112.7,59.5
	c0-4.1,3.5-7.5,7.6-7.3c3.9,0.2,7.1,3.6,7,7.5s-3.5,7.1-7.4,7.1C115.9,66.8,112.7,63.5,112.7,59.5z M347.6,449.3
	c2,3.2,3.8,6.4,1.5,10.2c-2.3,3.8-6,3.9-9.7,3.5c-1.4-0.2-3.1-1.2-3.8-2.4c-8.1-13.8-16-27.7-23.8-41.7c-0.8-1.4-1-3.2-1-4.8
	c-0.1-15.9-0.1-31.7,0-47.6c0-1.6,0.7-3.6,1.8-4.8c3.7-4.2,7.8-8.2,11.7-12.2l1.1,0.5v28.2c0,10.4-0.2,20.8,0.1,31.1
	c0.1,2.7,0.9,5.8,2.3,8.1C334.2,428.2,340.9,438.7,347.6,449.3z M340.2,330.5v-35.9h-14.8c0,9.6-0.1,19.1,0.1,28.7
	c0.1,3.4-1,5.6-3.3,8c-21.8,21.6-43.4,43.4-65.3,65c-3.6,3.5-5,7.2-4.9,12.1c0.3,13.9,0.1,27.8,0.1,41.7c0,11.9-2.1,13.8-14.4,12.6
	c-0.1-1.3-0.2-2.6-0.2-3.9c0-20.8-0.1-41.6,0.1-62.3c0-2.1,1.1-4.7,2.6-6.3c14.8-15,29.7-29.9,44.7-44.8c2.8-2.8,4.1-5.8,4-9.7
	c-0.2-10.5,0-21.1-0.1-31.6c0-7.4-2.4-9.7-10-9.7c-21.7,0-43.4,0-65.1,0c-12.1,0-13.7-1.7-12.7-14.7h4.8c19.4,0,38.8-0.1,58.2,0.1
	c3.9,0,7-1.1,9.8-3.9c6.1-6.4,12.4-12.7,18.8-18.8c3.5-3.4,4.8-7.1,2-11.4c-5.2-7.9-6.2-16.5-5.9-25.8c0.4-13.3,0.1-26.6,0.1-40.5
	c11.1,3.3,21.8,6.1,32.3,9.7c2,0.7,4.1,4.4,4.2,6.8c0.4,11.1,0.4,22.3,0.1,33.5c-0.1,2.2-1.5,4.6-3,6.3c-2.6,3.2-5.8,5.8-8.6,8.8
	c-4.9,5.1-3.5,10.9,3.2,13.2c10.1,3.5,20.2,6.8,30.4,10.2c6.4,2.2,7.6,3.7,7.6,10.7c0,13.5-0.4,26.9,0.1,40.3
	C355.3,330.7,350,332.1,340.2,330.5z M431.7,301c-2.4-3.3-3.1-8.2-3.5-12.5c-0.6-7.9,0.1-15.9-0.6-23.8c-0.8-8.7-5.1-15.8-11.3-21.9
	c-13-12.9-25.9-26-38.9-38.8c-5.5-5.4-8.1-11.5-8-19.2c0.1-7.3,0.3-14.8-0.8-21.9c-2.8-17.1-17.6-29.4-35-29.9
	c-4.6-0.1-9.2,0-13.6-0.9c-8.9-1.9-16-9.8-16.2-18.8c-0.4-18-0.1-36-0.1-54.1C418,87.3,483,209.9,447.8,318.6
	C442.2,312.6,436.3,307.3,431.7,301z M435.8,463c-4.1,0.2-7.6-3.2-7.6-7.3c0-3.9,3.2-7.2,7.2-7.3c3.9-0.1,7.3,3.1,7.4,7.1
	C442.8,459.4,439.7,462.8,435.8,463z M449.1,419.7c-5.9,4-12.1,7.5-18.4,11.4c-12.2-20.4-24.2-40.4-36.5-60.8
	c6.4-3.8,12.4-7.6,18.7-10.9c3.6-1.9,7-0.6,9.1,2.8c9.8,16,19.4,32.1,29,48.2C452.9,413.8,452.4,417.4,449.1,419.7z"/>
</svg>
