<svg id="Layer_1" data-name="Layer 1" xmlns="http://www.w3.org/2000/svg" viewBox="0 0 500 500"><path d="M482.79,279.89c-.69-2.07-4.14-4.2-6.56-4.44-2.25-.22-5.13,1.56-7.05,3.25-6.6,5.79-12.9,11.93-19.32,17.94l-.94-.38c.13-1.18.17-2.38.4-3.54,4.94-25.51,5.26-51.05,0-76.55C436.48,153.43,402,106.36,345.86,75.65c-38.36-21-79.72-27.9-123-22.08-10,1.35-19.9,4.11-29.8,6.38-3.61.83-6.44,2.86-7,6.9-.8,6,4.37,10.24,10.6,8.45,25-7.21,50.37-9.68,76.23-6.39,47.57,6,87.27,27.06,118.76,63.14,24,27.47,38.37,59.49,43.64,95.63A188.31,188.31,0,0,1,433,293.81c-1.07-2.51-1.82-4.12-2.44-5.77-2.73-7.24-5.3-14.54-8.17-21.72-1.75-4.37-6.08-6.22-10-4.74-4.23,1.6-6.2,5.85-4.64,10.43,1.36,4,2.91,8,4.4,11.95,4.95,13.21,9.83,26.45,14.9,39.61,2.37,6.16,8.15,8.12,12.69,4,14.07-12.8,28-25.77,41.59-39.06C483.08,286.77,483.63,282.39,482.79,279.89Z"/><path d="M307.64,433c-2.15-.22-4.45.67-6.62,1.28a181.78,181.78,0,0,1-70,6c-47-5.25-87.2-24.87-118.83-60.16C70,333,56.14,277.82,67.42,214.64c1,2.21,1.57,3.24,2,4.32,2.8,7.37,5.52,14.77,8.36,22.12,2.06,5.34,6.19,7.69,10.48,6.15,4.63-1.66,6.37-6.17,4.32-11.69q-9.18-24.73-18.49-49.43c-3-7.86-8.62-9.17-14.76-3.47q-19.23,17.85-38.37,35.82c-4.71,4.4-5.41,8.95-1.94,12.65s8.05,3.28,12.78-1.17c5.44-5.1,10.86-10.22,16.32-15.3,1-.89,2-1.67,3.56-2.9a29.06,29.06,0,0,1-.17,3.68c-5.45,27.36-5.41,54.7.95,81.88C67.59,362.07,105.17,409.2,165.05,438c38.08,18.32,78.36,23.16,120,16.06,8.2-1.4,16.25-3.74,24.28-6,4-1.11,5.79-4.29,5.28-8.46S311.42,433.34,307.64,433Z"/><path d="M202.56,361.1Z"/><path d="M350.73,340.34C366.42,322,384.59,290.9,382,246.4A131.71,131.71,0,0,0,250.15,122.19c-2.91,0-5.86.1-8.79.28a131.77,131.77,0,0,0-123.43,139c3,56.55,39,96.91,79,114.32,0,0,0-.1.09-.26a132.26,132.26,0,0,0,135.74-18l.11.1A133.36,133.36,0,0,0,350.73,340.34ZM279.21,167.47c0-3.21,0-6.41,0-9.61a6.43,6.43,0,0,1,2.09-5.09c3.28-3.12,5.72-5.57,7.92-8l.13-.14.2.07c28.87,10.92,50.6,30.24,64.58,57.41,1.38,2.68,2.52,5.46,3.73,8.42.62,1.5,1.25,3.05,1.95,4.66-6.17,6.07-12.68,12.58-21.07,21a6.18,6.18,0,0,1-4.71,1.92h0c-2.92,0-5.85,0-8.77,0l-23.65,0c-2.59,0-5.19,0-7.78,0h-.22a19.52,19.52,0,0,0-14.06,5.8c-1.62,1.57-3.21,3.17-4.8,4.77q-2,2-3.95,4a5.43,5.43,0,0,1-3.65,1.86,5.25,5.25,0,0,1-3.53-1.78c-1.44-1.4-2.85-2.82-4.26-4.24s-2.72-2.74-4.09-4.08a5.51,5.51,0,0,1-1.78-4.21V233q0-7.77,0-15.55A5.84,5.84,0,0,1,255.4,213q4.74-4.68,9.45-9.42c2.67-2.68,5.33-5.35,8-8a20.58,20.58,0,0,0,6.39-15.48C279.19,175.89,279.2,171.61,279.21,167.47ZM161.27,179c19.9-23.44,47-37.66,76.64-40.29v8c0,7.82,0,15.9,0,23.86a7.42,7.42,0,0,1-2.42,5.82c-3.7,3.59-7.38,7.3-10.95,10.89-2.05,2.05-4.1,4.12-6.17,6.16a19.81,19.81,0,0,0-6.24,15.33c0,.74,0,1.47,0,2.2v.29c-.06,3.72-1.72,5.4-5.37,5.42l-3.5,0c-3.27,0-6.55.05-9.82.05-3.87,0-7.1,0-10.17-.1h-.56a21.41,21.41,0,0,0-15.85,6.83c-9.05,9.14-18.32,18.38-27.27,27.32l-6,6C132.58,229.17,142.46,201.17,161.27,179Zm31.89,129.78a21.53,21.53,0,0,0-6.79,16.41c.12,7.07.09,14.29.07,21.27,0,1.92,0,3.84,0,5.75-3.69-2.58-7.17-5-10.42-7.67A115.78,115.78,0,0,1,143.9,303h0c8.5-8.43,17.11-17,25.43-25.36l12.53-12.52a5.6,5.6,0,0,1,3.73-2,5.77,5.77,0,0,1,3.79,2l1.59,1.6c1,1,2,2,3.05,3a19.31,19.31,0,0,0,13.51,5.48H213c.71,0,1.41,0,2.11,0h.25c3.33,0,4.36,1.31,5,2.73s.94,2.9-1.72,5.54c-3.64,3.6-7.25,7.23-10.87,10.85C203,299.07,198,304,193.16,308.81Zm129,37.75a116.89,116.89,0,0,1-119.82,14.77c.11-.16.19-.25.24-.23l-.62-.32a4.37,4.37,0,0,1,0-.53c.15-11.21.15-22.7,0-34.15a8.42,8.42,0,0,1,2.83-6.72c7.61-7.46,15.59-15.42,25.85-25.82a19.51,19.51,0,0,0,4.06-22c-3.55-7.7-9.9-11.83-18.35-11.92-1.19,0-2.39,0-3.58,0l-4.08,0a5.51,5.51,0,0,1-4.33-1.76c-.72-.76-1.47-1.5-2.21-2.24l-.89-.87c-4.94-4.93-10.19-7.44-15.59-7.44s-10.74,2.54-15.75,7.55l-7.1,7.1q-12.37,12.38-24.74,24.78c-.76-3.11-1.54-6.28-2.4-9.41,0-.16-.06-.27-.07-.33a2.18,2.18,0,0,1,.25-.28c14.31-14.22,28.55-28.45,42.31-42.29a6.94,6.94,0,0,1,5.4-2.19h0q4.6,0,9.23,0H208a18.86,18.86,0,0,0,11.52-3.83c5.75-4.29,8.56-10.12,8.11-16.86a10.31,10.31,0,0,1,3.74-9c3.87-3.56,7.59-7.35,11.19-11q2.34-2.4,4.71-4.77a20.3,20.3,0,0,0,6.2-15c-.06-7.45-.05-15,0-22.38V138A121.92,121.92,0,0,1,272,140c-.73.67-1.44,1.33-2.13,2a19.88,19.88,0,0,0-6.24,15c.05,3.78,0,7.64,0,11.37s0,7.25,0,10.88a7.11,7.11,0,0,1-2.31,5.59c-5,4.83-9.91,9.82-14.7,14.64l-2.8,2.82a19.67,19.67,0,0,0-6,14.51c.06,8,.06,16,0,23.81a19.62,19.62,0,0,0,5.75,14.3c3.53,3.63,6.5,6.6,9.37,9.37a19.82,19.82,0,0,0,28.2.06c2.36-2.27,5.46-5.29,8.46-8.47a6.91,6.91,0,0,1,5.57-2.23h0l9.41,0h14.79q7.33,0,14.67.05h.24A21,21,0,0,0,350,247.14c4.24-4.32,8.61-8.67,12.84-12.87l1.63-1.63c3.31,17.17,2.24,33.35-.2,44.14h-35.8a6,6,0,0,1-4.28-2,19.81,19.81,0,0,0-28.77.41c-2.43,2.39-4.83,4.81-7.23,7.22-9.07,9.12-9.07,20.9,0,30q12.92,13,25.88,25.89l1.43,1.43c2.11,2.1,4.22,4.2,6.51,6.45l.08.08C322.08,346.34,322.09,346.43,322.14,346.56Zm3.72-18.72c-9-9-18.38-18.31-27.45-27.47a4.06,4.06,0,0,1,0-5.84c2.66-2.87,5.51-5.73,8.72-8.74a4.42,4.42,0,0,1,3-1.23,3.86,3.86,0,0,1,2.8,1.18c4.46,4.5,10,6.69,16.83,6.69h.72c3.76-.08,7.83-.12,12.8-.12l9.22,0,7.74,0a115,115,0,0,1-26.53,43.29Z"/><path d="M39.75,157H135a12.25,12.25,0,0,0,12.25-12.25q0-14.11,0-28.24a20.24,20.24,0,0,0-.49-4.72c-1.81-7.73-6.84-12.49-14.21-15-7.69-2.58-15.39-5.13-22.89-7.62,1.53-6,3.93-11.39,4.14-16.9.56-14.95.24-29.93.17-44.9,0-5.36-4.2-8.41-9.3-6.77C94.33,24,84,27.39,73.77,31.05A18.93,18.93,0,0,0,60.84,49.92c.33,10.8-1.75,21.75,2.37,32.73l1.4,5.63L52.47,93.35c-4,1.39-6.88,2.41-9.77,3.39-10.36,3.49-15.19,10.18-15.19,21.1q0,13.46,0,26.93A12.26,12.26,0,0,0,39.75,157Zm6.73-47.3c9.45-3.06,18.87-6.26,28.26-9.49,5.74-2,7-4.72,5.2-10.51a12.06,12.06,0,0,0-.49-1.58c-5.58-11.91-6-24.55-5.39-37.35.13-3.17,1.11-5.92,4.17-7,7.25-2.61,14.62-4.91,22.47-7.51,0,12,.58,23.25-.24,34.41-.43,5.9-3.24,11.64-5.12,17.4-2.58,8-1.46,10.17,6.58,12.82,8.66,2.86,17.26,5.89,26,8.64,4.36,1.38,6.17,4.12,6.15,8.61q-.06,12.5-.05,25H40.81V117.36C40.81,113.41,42.63,111,46.48,109.72Z"/><path d="M453.35,434.57c-1.81-7.73-6.84-12.49-14.21-15-7.69-2.57-15.39-5.12-22.88-7.61,1.52-6,3.92-11.4,4.13-16.9.56-15,.24-29.94.18-44.91,0-5.36-4.21-8.4-9.31-6.77-10.35,3.32-20.68,6.73-30.91,10.39a18.94,18.94,0,0,0-12.92,18.88c.32,10.79-1.76,21.75,2.36,32.72l1.4,5.64-12.14,5.07c-4,1.39-6.88,2.41-9.77,3.38-10.36,3.49-15.19,10.19-15.19,21.1q0,13.47,0,26.94a12.25,12.25,0,0,0,12.25,12.25h95.27a12.26,12.26,0,0,0,12.25-12.25q0-14.12,0-28.24A20.32,20.32,0,0,0,453.35,434.57Zm-12.8,31.32H347.39V440.13c0-3.95,1.82-6.4,5.67-7.65,9.45-3.06,18.87-6.25,28.27-9.49,5.73-2,7-4.71,5.19-10.5a11.6,11.6,0,0,0-.49-1.58c-5.57-11.91-5.95-24.55-5.39-37.35.13-3.18,1.11-5.93,4.17-7,7.26-2.61,14.62-4.91,22.47-7.52,0,12,.59,23.26-.24,34.41-.43,5.9-3.24,11.64-5.12,17.41-2.58,7.94-1.46,10.17,6.58,12.82,8.66,2.86,17.26,5.88,25.95,8.64,4.36,1.38,6.17,4.12,6.15,8.61Q440.54,453.4,440.55,465.89Z"/></svg>